<?xml version="1.0" encoding="utf-8"?>
<!-- Generator: Adobe Illustrator 23.0.3, SVG Export Plug-In . SVG Version: 6.00 Build 0)  -->
<svg version="1.1" id="Capa_1" xmlns="http://www.w3.org/2000/svg" xmlns:xlink="http://www.w3.org/1999/xlink" x="0px" y="0px"
	 viewBox="0 0 187 187" style="enable-background:new 0 0 187 187;" xml:space="preserve">
<style type="text/css">
	.st0{fill:#010101;}
	.st1{fill:#030303;}
	.st2{fill:#4CB5AB;}
	.st3{fill:#FF5454;}
</style>
<g>
	<path class="st0" d="M121.7,28.9c-2.2-1.8-4.4-3.6-6.5-5.5c-2.4-2.3-3-5-0.4-7.5c2.3-2.3,4.9-1.9,7.1,0.3
		c5.3,5.2,10.5,10.4,15.7,15.7c2.4,2.5,2.3,5.3-0.1,7.7c-5,5.2-10.1,10.2-15.3,15.3c-2.3,2.3-5,2.9-7.6,0.4
		c-2.6-2.7-1.6-5.3,0.7-7.5c2-2,4.2-3.8,6.3-5.6c-0.3-0.5-0.5-1-0.8-1.4c-8.5,0-17,0-25.5,0c-3.5,0-7-0.2-7.2-4.7
		c-0.1-4.8,3.5-5.3,7.3-5.3c8.4,0,16.8,0,25.2,0C121.1,30,121.4,29.5,121.7,28.9z"/>
	<path class="st0" d="M88.1,141.7c-8.5-0.2-15.8,7.1-15.8,15.5c0.1,8.1,7.4,15.4,15.4,15.4c8,0,15.4-7.3,15.5-15.3
		C103.4,149.2,96.3,141.9,88.1,141.7z M87.9,162.6c-3.2,0.1-5.5-2-5.5-5.3c-0.1-3.3,2-5.4,5.3-5.5c3.3-0.1,5.1,2.1,5.7,5.2
		C93,160.3,91.2,162.5,87.9,162.6z"/>
	<path class="st0" d="M140.1,141.7c-8.6-0.2-15.9,6.8-15.9,15.4c0,8.2,7.1,15.4,15.2,15.5c8,0.1,15.5-7.1,15.7-15.2
		C155.3,149.4,148.2,141.9,140.1,141.7z M139.8,162.7c-3.1-0.4-5.4-1.8-5.5-5.3c-0.1-3.4,1.8-5.5,5.1-5.7c3.4-0.2,5.4,2,5.7,5.1
		C145.2,160.1,143,162,139.8,162.7z"/>
	<g>
		<path d="M126.5,119.6c3.6,0.5,5.3-1.7,5.6-5c0.7-6.3,1.4-12.7,2.1-19c0.4-3.7,0.2-7.6-4.5-7.9c-4.6-0.3-5.3,3.4-5.6,7.2
			c-0.5,6.1-1.4,12.3-2,18.4C121.9,116.4,122.9,119.1,126.5,119.6z"/>
		<path d="M104.7,109.9c-0.6-5.7-1-11.4-1.7-17.2c-0.3-2.9-1.9-5.2-5.1-5.2c-2.8,0-4.9,1.7-4.7,4.6c0.6,8,1.4,15.9,2.4,23.9
			c0.4,2.9,2.7,4,5.5,3.6c2.7-0.4,3.8-2.3,4-4.8C105.2,113.2,104.9,111.5,104.7,109.9C104.7,109.9,104.7,109.9,104.7,109.9z"/>
		<path d="M161.8,68.8c-27,0-54,0-81,0c-4.9,0-10.8,1.4-14.5-0.8c-3.5-2.1-2.9-8.5-4.2-13c-1-3.4-2.5-6.1-6.7-6
			C49.2,49,43,49,36.9,49c-3.4,0-5.6,1.5-5.5,5.1c0.1,3.7,2.6,4.8,5.9,4.8c3.5,0,7,0.2,10.5-0.1c3.7-0.3,5.3,0.8,6.2,4.7
			c5.5,22.1,11.6,44.1,17,66.3c1.6,6.7,4.8,9.1,11.5,8.7c10.3-0.5,20.6-0.1,30.9-0.1c10.9,0,21.9-0.3,32.8,0.1
			c5.8,0.2,8.5-2,9.9-7.6c4.3-17.6,9.1-35,13.6-52.5C171.6,70.9,169.8,68.8,161.8,68.8z M147.1,125.2c-0.6,2.5-1.7,3.2-4.2,3.2
			c-19.4-0.1-38.7-0.1-58.1,0c-2.9,0-4-1-4.6-3.6c-3.6-14.1-7.3-28.3-11-42.4c-0.6-2.4-0.8-3.8,2.5-3.8c29,0.1,58,0.1,87.5,0.1
			C155,94.6,150.9,109.9,147.1,125.2z"/>
	</g>
</g>
</svg>
